# xmcd
#
# Track frame offsets:
#	150
#	12673
#	24357
#	40555
#	55233
#	69021
#	77249
#	90896
#	102311
#	116283
#	132153
#	141691
#	154516
#	164794
#	178476
#	189676
#	204548
#
# Disc length: 2991 seconds
#
# Revision: 2
# Processed by: cddbd v1.4PL0 Copyright (c) Steve Scherf et al.
# Submitted via: audiograbber 1.80.04
#
DISCID=e60bad11
DTITLE=Gerry Lee and The Wanted Men - Framed
DYEAR=2000
DGENRE=Western Swing
TTITLE0=The Way You're Treating Me
TTITLE1=Li'l Liza Jane
TTITLE2=Texas Blues
TTITLE3=(Might as well be) Going Home
TTITLE4=Bluer Than The Bluegrass 
TTITLE5=Used To Be
TTITLE6=Beer Prison
TTITLE7=The Long Story
TTITLE8=Shackles and Chains
TTITLE9=Yankee Go Home
TTITLE10=Country Kisses
TTITLE11=Let's Go Dancing
TTITLE12=Roving Eyes
TTITLE13=Tiptoe Through The Bluegrass
TTITLE14=Do I Need You Now?
TTITLE15=Bubbles In My Beer
TTITLE16=A Cowboy's Lament
EXTD=http://www.wanted-men.de/
EXTT0=
EXTT1=
EXTT2=
EXTT3=
EXTT4=
EXTT5=
EXTT6=
EXTT7=
EXTT8=
EXTT9=
EXTT10=
EXTT11=
EXTT12=
EXTT13=
EXTT14=
EXTT15=
EXTT16=
PLAYORDER=
